<svg width="555.3874999999999px" height="121.60000610351562px" xmlns="http://www.w3.org/2000/svg" viewBox="-27.693749999999966 14.199996948242188 555.3874999999999 121.60000610351562" style="background: rgba(0, 0, 0, 0);" preserveAspectRatio="xMidYMid"><defs><filter id="editing-vr"><feFlood flood-color="#f00" flood-opacity="0.7" result="c1"></feFlood><feFlood flood-color="#00f" flood-opacity="0.7" result="c3"></feFlood><feComposite operator="in" in="c1" in2="SourceAlpha" result="text-c1"></feComposite><feComposite operator="in" in="c3" in2="SourceAlpha" result="text-c3"></feComposite><feOffset in="text-c1" dx="5" dy="-1" result="text1"></feOffset><feOffset in="text-c3" dx="-5" dy="1" result="text3"></feOffset><feBlend in="SourceGraphic" in2="text1" mode="multiply" result="text4"></feBlend><feBlend in="text4" in2="text3" mode="multiply"></feBlend></filter></defs><g filter="url(#editing-vr)"><g transform="translate(52.93999481201172, 97.46499633789062)"><path d="M7.17 0L10.88-18.82L10.88-18.82Q9.02-36.16 2.50-39.87L2.50-39.87L2.50-39.87Q3.84-41.54 6.02-42.46L6.02-42.46L6.02-42.46Q8.19-43.39 10.82-43.39L10.82-43.39L10.82-43.39Q13.44-43.39 15.42-42.46L15.42-42.46L15.42-42.46Q17.41-41.54 18.69-39.55L18.69-39.55L18.69-39.55Q21.12-35.78 21.12-26.75L21.12-26.75L21.12-22.14L21.12-22.14Q24.96-33.41 28.80-38.27L28.80-38.27L28.80-38.27Q32.70-43.26 37.57-43.26L37.57-43.26L37.57-43.26Q39.49-43.26 40.77-42.27L40.77-42.27L40.77-42.27Q42.05-41.28 42.69-39.81L42.69-39.81L42.69-39.81Q37.76-37.63 33.02-31.36L33.02-31.36L33.02-31.36Q28.29-25.09 25.22-16.32L25.22-16.32L21.44 0L7.17 0ZM64.70 1.28L64.70 1.28L64.70 1.28Q56.51 1.28 55.74-10.37L55.74-10.37L44.74-10.37L44.74-10.37Q43.46-7.42 42.56-4.86L42.56-4.86L40.90 0L31.94 0L52.10-42.24L65.86-42.24L68.54-11.14L68.54-11.14Q69.18-4.42 71.74-2.43L71.74-2.43L71.74-2.43Q69.89 1.28 64.70 1.28ZM50.24-23.17L46.72-15.04L55.55-15.04L54.78-31.49L54.78-33.22L50.24-23.17ZM80.90 0L73.54 0L85.12-42.24L98.50-42.24L101.44-18.11L113.34-42.24L124.54-42.24L125.70-10.62L125.70-10.62Q125.95-4.35 129.02-2.43L129.02-2.43L129.02-2.43Q128.32-1.15 126.27 0.06L126.27 0.06L126.27 0.06Q124.22 1.28 121.50 1.28L121.50 1.28L121.50 1.28Q118.78 1.28 117.18 0.51L117.18 0.51L117.18 0.51Q115.58-0.26 114.69-1.54L114.69-1.54L114.69-1.54Q113.09-3.84 113.09-8.26L113.09-8.26L113.09-28.03L100.48 0L92.54 0L88.06-28.74L80.90 0ZM145.02 0L131.07 0L139.20-42.24L153.28-42.24L145.02 0ZM192.83-29.57L192.83-29.57L192.83-29.57Q193.79-31.49 193.79-33.28L193.79-33.28L193.79-33.28Q193.79-35.07 193.60-36.06L193.60-36.06L193.60-36.06Q193.41-37.06 192.96-37.82L192.96-37.82L192.96-37.82Q192-39.49 190.08-39.49L190.08-39.49L190.08-39.49Q187.71-39.49 185.79-37.76L185.79-37.76L185.79-37.76Q183.74-35.97 183.74-33.15L183.74-33.15L183.74-33.15Q183.74-31.36 184.99-29.98L184.99-29.98L184.99-29.98Q186.24-28.61 188.16-27.33L188.16-27.33L188.16-27.33Q190.08-26.05 192.26-24.77L192.26-24.77L192.26-24.77Q194.43-23.49 196.35-21.95L196.35-21.95L196.35-21.95Q200.77-18.43 200.77-13.70L200.77-13.70L200.77-13.70Q200.77-10.50 199.07-7.78L199.07-7.78L199.07-7.78Q197.38-5.06 194.56-3.07L194.56-3.07L194.56-3.07Q188.42 1.28 180.29 1.28L180.29 1.28L180.29 1.28Q173.70 1.28 170.30-0.86L170.30-0.86L170.30-0.86Q166.91-3.01 166.91-6.27L166.91-6.27L166.91-6.27Q166.91-12.10 171.46-13.57L171.46-13.57L171.46-13.57Q172.74-14.02 174.69-14.02L174.69-14.02L174.69-14.02Q176.64-14.02 178.88-13.18L178.88-13.18L178.88-13.18Q177.86-10.56 177.86-8.19L177.86-8.19L177.86-8.19Q177.86-3.07 181.50-3.07L181.50-3.07L181.50-3.07Q183.87-3.07 185.82-4.80L185.82-4.80L185.82-4.80Q187.78-6.53 187.78-8.48L187.78-8.48L187.78-8.48Q187.78-10.43 186.53-11.84L186.53-11.84L186.53-11.84Q185.28-13.25 183.42-14.37L183.42-14.37L183.42-14.37Q181.57-15.49 179.42-16.58L179.42-16.58L179.42-16.58Q177.28-17.66 175.42-19.20L175.42-19.20L175.42-19.20Q171.07-22.72 171.07-28.35L171.07-28.35L171.07-28.35Q171.07-32 172.86-34.85L172.86-34.85L172.86-34.85Q174.66-37.70 177.54-39.62L177.54-39.62L177.54-39.62Q183.30-43.52 190.37-43.52L190.37-43.52L190.37-43.52Q197.44-43.52 200.86-41.41L200.86-41.41L200.86-41.41Q204.29-39.30 204.29-35.71L204.29-35.71L204.29-35.71Q204.29-32.58 201.86-30.59L201.86-30.59L201.86-30.59Q199.74-28.93 197.18-28.93L197.18-28.93L197.18-28.93Q194.62-28.93 192.83-29.57ZM210.75-31.17L210.75-31.17L210.75-31.17Q208.58-32.83 208.58-36.38L208.58-36.38L208.58-36.38Q208.58-39.94 210.91-41.79L210.91-41.79L210.91-41.79Q213.25-43.65 217.28-43.65L217.28-43.65L217.28-43.65Q219.84-43.65 225.92-42.75L225.92-42.75L230.27-42.11L230.27-42.11Q232.45-41.86 234.72-41.86L234.72-41.86L234.72-41.86Q236.99-41.86 238.53-42.82L238.53-42.82L238.53-42.82Q240.83-40.77 240.83-37.82L240.83-37.82L240.83-37.82Q240.83-34.88 238.21-32.77L238.21-32.77L238.21-32.77Q235.52-30.53 232.06-30.53L232.06-30.53L232.06-30.53Q230.40-30.53 227.71-30.98L227.71-30.98L227.71-30.98Q224.58-21.12 224.58-14.27L224.58-14.27L224.58-14.27Q224.58-7.42 228.03-3.84L228.03-3.84L228.03-3.84Q226.43-0.96 224.06 0.16L224.06 0.16L224.06 0.16Q221.70 1.28 218.14 1.28L218.14 1.28L218.14 1.28Q214.59 1.28 212.38-0.67L212.38-0.67L212.38-0.67Q210.18-2.62 210.18-6.66L210.18-6.66L210.18-6.66Q210.18-11.33 212.74-19.01L212.74-19.01L212.74-19.01Q215.30-26.62 219.14-32.45L219.14-32.45L219.14-32.45Q217.28-32.64 215.36-32.64L215.36-32.64L215.36-32.64Q211.39-32.64 210.75-31.17ZM240.00-9.47L240.00-9.47L240.00-9.47Q240.00-11.97 240.64-15.17L240.64-15.17L245.82-42.24L259.97-42.24L254.85-14.98L254.85-14.98Q254.27-11.97 254.27-9.76L254.27-9.76L254.27-9.76Q254.27-7.55 255.20-6.40L255.20-6.40L255.20-6.40Q256.13-5.25 257.86-5.25L257.86-5.25L257.86-5.25Q259.58-5.25 260.67-5.70L260.67-5.70L260.67-5.70Q261.76-6.14 262.66-7.23L262.66-7.23L262.66-7.23Q264.38-9.41 265.47-14.98L265.47-14.98L270.66-42.24L280.32-42.24L275.20-15.04L275.20-15.04Q273.41-5.95 268.48-2.30L268.48-2.30L268.48-2.30Q263.68 1.28 254.21 1.28L254.21 1.28L254.21 1.28Q247.10 1.28 243.33-1.79L243.33-1.79L243.33-1.79Q240.00-4.48 240.00-9.47ZM323.14-26.56L323.14-26.56L323.14-26.56Q323.14 0.70 293.57 0.70L293.57 0.70L293.57 0.70Q288.83 0.70 281.02-0.45L281.02-0.45L288.19-38.27L288.19-38.27Q288.70-40.83 289.02-42.30L289.02-42.30L289.02-42.30Q298.75-43.01 303.07-43.01L303.07-43.01L303.07-43.01Q307.39-43.01 311.36-42.11L311.36-42.11L311.36-42.11Q315.33-41.22 317.95-39.23L317.95-39.23L317.95-39.23Q323.14-35.33 323.14-26.56ZM309.95-28.93L309.95-28.93L309.95-28.93Q309.95-38.46 303.10-38.46L303.10-38.46L302.46-38.46L302.46-38.46Q302.14-38.46 301.82-38.40L301.82-38.40L295.23-4.03L295.23-4.03Q295.49-3.90 295.74-3.90L295.74-3.90L296.26-3.90L296.26-3.90Q298.62-3.90 301.09-5.38L301.09-5.38L301.09-5.38Q303.55-6.85 305.47-9.86L305.47-9.86L305.47-9.86Q309.95-16.83 309.95-28.93ZM339.65 0L325.70 0L333.82-42.24L347.90-42.24L339.65 0ZM350.27-15.62L350.27-15.62L350.27-15.62Q350.27-27.71 356.54-35.33L356.54-35.33L356.54-35.33Q363.20-43.58 374.78-43.58L374.78-43.58L374.78-43.58Q383.17-43.58 387.39-39.52L387.39-39.52L387.39-39.52Q391.62-35.46 391.62-26.88L391.62-26.88L391.62-26.88Q391.62-13.82 384.96-6.21L384.96-6.21L384.96-6.21Q378.37 1.28 367.30 1.28L367.30 1.28L367.30 1.28Q358.66 1.28 354.46-3.04L354.46-3.04L354.46-3.04Q350.27-7.36 350.27-15.62ZM367.10-28.86L367.10-28.86L367.10-28.86Q364.22-17.34 364.22-8.26L364.22-8.26L364.22-8.26Q364.22-6.08 364.96-4.67L364.96-4.67L364.96-4.67Q365.70-3.26 367.65-3.26L367.65-3.26L367.65-3.26Q369.60-3.26 370.82-4.19L370.82-4.19L370.82-4.19Q372.03-5.12 372.99-7.23L372.99-7.23L372.99-7.23Q374.53-10.69 375.97-18.02L375.97-18.02L375.97-18.02Q377.41-25.34 377.54-28.38L377.54-28.38L377.54-28.38Q377.66-31.42 377.66-33.73L377.66-33.73L377.66-33.73Q377.66-36.03 376.96-37.50L376.96-37.50L376.96-37.50Q376.26-38.98 374.37-38.98L374.37-38.98L374.37-38.98Q372.48-38.98 371.20-37.82L371.20-37.82L371.20-37.82Q368.83-35.65 367.10-28.86Z" fill="#444"></path></g></g><style>text {
  font-size: 64px;
  font-family: Arial Black;
  dominant-baseline: central;
  text-anchor: middle;
}</style></svg>